<svg xmlns="http://www.w3.org/2000/svg" viewBox="0 0 960 300" width="960" height="300" role="img" aria-label="Histogram of simulated margin of victory across 1,000 runs"><rect width="960" height="300" fill="#060e1a"/><line x1="14" y1="90.5" x2="946" y2="90.5" stroke="#1b2a3d" stroke-width="1"/><line x1="14" y1="147.0" x2="946" y2="147.0" stroke="#1b2a3d" stroke-width="1"/><line x1="14" y1="203.5" x2="946" y2="203.5" stroke="#1b2a3d" stroke-width="1"/><rect x="14.0" y="255.7" width="10.0" height="4.3" fill="#C8102E" rx="1.2"/><rect x="35.7" y="251.5" width="10.0" height="8.5" fill="#C8102E" rx="1.2"/><rect x="68.2" y="255.7" width="10.0" height="4.3" fill="#C8102E" rx="1.2"/><rect x="89.9" y="251.5" width="10.0" height="8.5" fill="#C8102E" rx="1.2"/><rect x="100.7" y="247.2" width="10.0" height="12.8" fill="#C8102E" rx="1.2"/><rect x="111.5" y="255.7" width="10.0" height="4.3" fill="#C8102E" rx="1.2"/><rect x="122.4" y="255.7" width="10.0" height="4.3" fill="#C8102E" rx="1.2"/><rect x="133.2" y="255.7" width="10.0" height="4.3" fill="#C8102E" rx="1.2"/><rect x="144.0" y="247.2" width="10.0" height="12.8" fill="#C8102E" rx="1.2"/><rect x="154.9" y="238.7" width="10.0" height="21.3" fill="#C8102E" rx="1.2"/><rect x="165.7" y="255.7" width="10.0" height="4.3" fill="#C8102E" rx="1.2"/><rect x="176.6" y="247.2" width="10.0" height="12.8" fill="#C8102E" rx="1.2"/><rect x="187.4" y="238.7" width="10.0" height="21.3" fill="#C8102E" rx="1.2"/><rect x="198.2" y="247.2" width="10.0" height="12.8" fill="#C8102E" rx="1.2"/><rect x="209.1" y="238.7" width="10.0" height="21.3" fill="#C8102E" rx="1.2"/><rect x="219.9" y="234.4" width="10.0" height="25.6" fill="#C8102E" rx="1.2"/><rect x="230.7" y="247.2" width="10.0" height="12.8" fill="#C8102E" rx="1.2"/><rect x="241.6" y="234.4" width="10.0" height="25.6" fill="#C8102E" rx="1.2"/><rect x="252.4" y="234.4" width="10.0" height="25.6" fill="#C8102E" rx="1.2"/><rect x="263.3" y="208.8" width="10.0" height="51.2" fill="#C8102E" rx="1.2"/><rect x="274.1" y="225.9" width="10.0" height="34.1" fill="#C8102E" rx="1.2"/><rect x="284.9" y="213.1" width="10.0" height="46.9" fill="#C8102E" rx="1.2"/><rect x="295.8" y="213.1" width="10.0" height="46.9" fill="#C8102E" rx="1.2"/><rect x="306.6" y="221.6" width="10.0" height="38.4" fill="#C8102E" rx="1.2"/><rect x="317.4" y="200.3" width="10.0" height="59.7" fill="#C8102E" rx="1.2"/><rect x="328.3" y="166.2" width="10.0" height="93.8" fill="#C8102E" rx="1.2"/><rect x="339.1" y="196.0" width="10.0" height="64.0" fill="#C8102E" rx="1.2"/><rect x="350.0" y="183.2" width="10.0" height="76.8" fill="#C8102E" rx="1.2"/><rect x="360.8" y="183.2" width="10.0" height="76.8" fill="#C8102E" rx="1.2"/><rect x="371.6" y="59.6" width="10.0" height="200.4" fill="#C8102E" rx="1.2"/><rect x="382.5" y="136.3" width="10.0" height="123.7" fill="#C8102E" rx="1.2"/><rect x="393.3" y="149.1" width="10.0" height="110.9" fill="#C8102E" rx="1.2"/><rect x="404.1" y="179.0" width="10.0" height="81.0" fill="#C8102E" rx="1.2"/><rect x="415.0" y="34.0" width="10.0" height="226.0" fill="#C8102E" rx="1.2"/><rect x="425.8" y="157.7" width="10.0" height="102.3" fill="#C8102E" rx="1.2"/><rect x="436.7" y="110.8" width="10.0" height="149.2" fill="#C8102E" rx="1.2"/><rect x="458.3" y="93.7" width="10.0" height="166.3" fill="#4DA3FF" rx="1.2"/><rect x="469.2" y="157.7" width="10.0" height="102.3" fill="#4DA3FF" rx="1.2"/><rect x="480.0" y="34.0" width="10.0" height="226.0" fill="#4DA3FF" rx="1.2"/><rect x="490.8" y="153.4" width="10.0" height="106.6" fill="#4DA3FF" rx="1.2"/><rect x="501.7" y="153.4" width="10.0" height="106.6" fill="#4DA3FF" rx="1.2"/><rect x="512.5" y="85.2" width="10.0" height="174.8" fill="#4DA3FF" rx="1.2"/><rect x="523.3" y="63.8" width="10.0" height="196.2" fill="#4DA3FF" rx="1.2"/><rect x="534.2" y="110.8" width="10.0" height="149.2" fill="#4DA3FF" rx="1.2"/><rect x="545.0" y="170.5" width="10.0" height="89.5" fill="#4DA3FF" rx="1.2"/><rect x="555.9" y="127.8" width="10.0" height="132.2" fill="#4DA3FF" rx="1.2"/><rect x="566.7" y="183.2" width="10.0" height="76.8" fill="#4DA3FF" rx="1.2"/><rect x="577.5" y="217.4" width="10.0" height="42.6" fill="#4DA3FF" rx="1.2"/><rect x="588.4" y="183.2" width="10.0" height="76.8" fill="#4DA3FF" rx="1.2"/><rect x="599.2" y="204.6" width="10.0" height="55.4" fill="#4DA3FF" rx="1.2"/><rect x="610.0" y="204.6" width="10.0" height="55.4" fill="#4DA3FF" rx="1.2"/><rect x="620.9" y="200.3" width="10.0" height="59.7" fill="#4DA3FF" rx="1.2"/><rect x="631.7" y="183.2" width="10.0" height="76.8" fill="#4DA3FF" rx="1.2"/><rect x="642.6" y="183.2" width="10.0" height="76.8" fill="#4DA3FF" rx="1.2"/><rect x="653.4" y="204.6" width="10.0" height="55.4" fill="#4DA3FF" rx="1.2"/><rect x="664.2" y="225.9" width="10.0" height="34.1" fill="#4DA3FF" rx="1.2"/><rect x="675.1" y="225.9" width="10.0" height="34.1" fill="#4DA3FF" rx="1.2"/><rect x="685.9" y="221.6" width="10.0" height="38.4" fill="#4DA3FF" rx="1.2"/><rect x="696.7" y="247.2" width="10.0" height="12.8" fill="#4DA3FF" rx="1.2"/><rect x="707.6" y="225.9" width="10.0" height="34.1" fill="#4DA3FF" rx="1.2"/><rect x="718.4" y="234.4" width="10.0" height="25.6" fill="#4DA3FF" rx="1.2"/><rect x="729.3" y="225.9" width="10.0" height="34.1" fill="#4DA3FF" rx="1.2"/><rect x="740.1" y="242.9" width="10.0" height="17.1" fill="#4DA3FF" rx="1.2"/><rect x="750.9" y="234.4" width="10.0" height="25.6" fill="#4DA3FF" rx="1.2"/><rect x="761.8" y="251.5" width="10.0" height="8.5" fill="#4DA3FF" rx="1.2"/><rect x="772.6" y="242.9" width="10.0" height="17.1" fill="#4DA3FF" rx="1.2"/><rect x="783.4" y="242.9" width="10.0" height="17.1" fill="#4DA3FF" rx="1.2"/><rect x="794.3" y="255.7" width="10.0" height="4.3" fill="#4DA3FF" rx="1.2"/><rect x="805.1" y="247.2" width="10.0" height="12.8" fill="#4DA3FF" rx="1.2"/><rect x="816.0" y="234.4" width="10.0" height="25.6" fill="#4DA3FF" rx="1.2"/><rect x="826.8" y="238.7" width="10.0" height="21.3" fill="#4DA3FF" rx="1.2"/><rect x="837.6" y="247.2" width="10.0" height="12.8" fill="#4DA3FF" rx="1.2"/><rect x="859.3" y="242.9" width="10.0" height="17.1" fill="#4DA3FF" rx="1.2"/><rect x="870.1" y="251.5" width="10.0" height="8.5" fill="#4DA3FF" rx="1.2"/><rect x="881.0" y="255.7" width="10.0" height="4.3" fill="#4DA3FF" rx="1.2"/><rect x="935.2" y="255.7" width="10.0" height="4.3" fill="#4DA3FF" rx="1.2"/><line x1="452.9" y1="28" x2="452.9" y2="260" stroke="#e8eef7" stroke-width="1.8" stroke-dasharray="5 4"/><text x="452.9" y="21" text-anchor="middle" font-family="Inter,Segoe UI,Arial,sans-serif" font-size="13" font-weight="700" fill="#e8eef7">tie</text><line x1="496.3" y1="28" x2="496.3" y2="260" stroke="#FFC93C" stroke-width="1.8" stroke-dasharray="5 4"/><text x="496.3" y="21" text-anchor="middle" font-family="Inter,Segoe UI,Arial,sans-serif" font-size="13" font-weight="700" fill="#FFC93C">market: Rams -3.5</text><line x1="474.6" y1="28" x2="474.6" y2="260" stroke="#34d399" stroke-width="1.8" stroke-dasharray="5 4"/><text x="474.6" y="21" text-anchor="middle" font-family="Inter,Segoe UI,Arial,sans-serif" font-size="13" font-weight="700" fill="#34d399">sim mean +2.5</text><line x1="14" y1="260" x2="946" y2="260" stroke="#33475f" stroke-width="1.2"/><text x="19.4" y="279" text-anchor="middle" font-family="Inter,Segoe UI,Arial,sans-serif" font-size="12" fill="#7d90a8">-40</text><text x="84.4" y="279" text-anchor="middle" font-family="Inter,Segoe UI,Arial,sans-serif" font-size="12" fill="#7d90a8">-34</text><text x="149.5" y="279" text-anchor="middle" font-family="Inter,Segoe UI,Arial,sans-serif" font-size="12" fill="#7d90a8">-28</text><text x="214.5" y="279" text-anchor="middle" font-family="Inter,Segoe UI,Arial,sans-serif" font-size="12" fill="#7d90a8">-22</text><text x="279.5" y="279" text-anchor="middle" font-family="Inter,Segoe UI,Arial,sans-serif" font-size="12" fill="#7d90a8">-16</text><text x="344.5" y="279" text-anchor="middle" font-family="Inter,Segoe UI,Arial,sans-serif" font-size="12" fill="#7d90a8">-10</text><text x="409.6" y="279" text-anchor="middle" font-family="Inter,Segoe UI,Arial,sans-serif" font-size="12" fill="#7d90a8">-4</text><text x="474.6" y="279" text-anchor="middle" font-family="Inter,Segoe UI,Arial,sans-serif" font-size="12" fill="#7d90a8">2</text><text x="539.6" y="279" text-anchor="middle" font-family="Inter,Segoe UI,Arial,sans-serif" font-size="12" fill="#7d90a8">8</text><text x="604.6" y="279" text-anchor="middle" font-family="Inter,Segoe UI,Arial,sans-serif" font-size="12" fill="#7d90a8">14</text><text x="669.7" y="279" text-anchor="middle" font-family="Inter,Segoe UI,Arial,sans-serif" font-size="12" fill="#7d90a8">20</text><text x="734.7" y="279" text-anchor="middle" font-family="Inter,Segoe UI,Arial,sans-serif" font-size="12" fill="#7d90a8">26</text><text x="799.7" y="279" text-anchor="middle" font-family="Inter,Segoe UI,Arial,sans-serif" font-size="12" fill="#7d90a8">32</text><text x="864.7" y="279" text-anchor="middle" font-family="Inter,Segoe UI,Arial,sans-serif" font-size="12" fill="#7d90a8">38</text><text x="929.7" y="279" text-anchor="middle" font-family="Inter,Segoe UI,Arial,sans-serif" font-size="12" fill="#7d90a8">44</text><text x="480" y="292" text-anchor="middle" font-family="Inter,Segoe UI,Arial,sans-serif" font-size="11.5" fill="#5f7288" letter-spacing="1.4">MARGIN, RAMS MINUS 49ERS</text></svg>