<svg xmlns="http://www.w3.org/2000/svg" viewBox="0 0 100 100" width="256" height="256" role="img" aria-label="Handicapper monitored by TrustMyRecord"><circle cx="50" cy="50" r="50" fill="#0E1526"/><path d="M0 50a50 50 0 0 1 100 0Z" fill="#FFFFFF" opacity=".045"/><defs><clipPath id="e1y17gza"><path d="M50 15a35 35 0 1 0 .01 0z"/></clipPath></defs><path d="M50 15a35 35 0 1 0 .01 0z" fill="#1A2540"/><g clip-path="url(#e1y17gza)"><path d="M0 0h100v22H0z" fill="#7C9CE0" opacity=".10"/></g><path d="M50 15a35 35 0 1 0 .01 0z" fill="none" stroke="#7C9CE0" stroke-opacity=".55" stroke-width="2.4"/><circle cx="50" cy="49" r="14" stroke="#7C9CE0" fill="none" stroke-width="3.2" stroke-linecap="round" stroke-linejoin="round"/><path d="M41 39c5 6 5 14 0 20M59 39c-5 6-5 14 0 20" stroke="#7C9CE0" fill="none" stroke-width="3.2" stroke-linecap="round" stroke-linejoin="round"/><circle cx="50" cy="50" r="48.4" fill="none" stroke="#7C9CE0" stroke-opacity=".3" stroke-width="3.2"/></svg>