<svg xmlns="http://www.w3.org/2000/svg" viewBox="0 0 100 100" width="256" height="256" role="img" aria-label="Handicapper monitored by TrustMyRecord"><circle cx="50" cy="50" r="50" fill="#091019"/><path d="M0 50a50 50 0 0 1 100 0Z" fill="#FFFFFF" opacity=".045"/><defs><clipPath id="e1llxvqa"><path d="M20 17h60v40L50 84 20 57z"/></clipPath></defs><path d="M20 17h60v40L50 84 20 57z" fill="#111C2B"/><g clip-path="url(#e1llxvqa)"><rect x="50" y="0" width="50" height="100" fill="#FFFFFF" opacity=".05"/></g><path d="M20 17h60v40L50 84 20 57z" fill="none" stroke="#8FB3D9" stroke-opacity=".55" stroke-width="2.4"/><circle cx="50" cy="49" r="14" stroke="#8FB3D9" fill="none" stroke-width="3.2" stroke-linecap="round" stroke-linejoin="round"/><path d="M36 49h28M50 35v28M40 39c6 6 14 6 20 0M40 59c6-6 14-6 20 0" stroke="#8FB3D9" fill="none" stroke-width="3.2" stroke-linecap="round" stroke-linejoin="round"/><circle cx="50" cy="50" r="48.4" fill="none" stroke="#8FB3D9" stroke-opacity=".3" stroke-width="3.2"/></svg>