<svg xmlns="http://www.w3.org/2000/svg" viewBox="0 0 100 100" width="256" height="256" role="img" aria-label="Handicapper monitored by TrustMyRecord"><circle cx="50" cy="50" r="50" fill="#0B1220"/><path d="M0 50a50 50 0 0 1 100 0Z" fill="#FFFFFF" opacity=".045"/><defs><clipPath id="e1o7zykb"><path d="M24 20h52c0 30-6 48-26 66C30 68 24 50 24 20z"/></clipPath></defs><path d="M24 20h52c0 30-6 48-26 66C30 68 24 50 24 20z" fill="#141E33"/><g clip-path="url(#e1o7zykb)"><rect x="0" y="50" width="100" height="50" fill="#000000" opacity=".22"/></g><path d="M24 20h52c0 30-6 48-26 66C30 68 24 50 24 20z" fill="none" stroke="#4E8CFF" stroke-opacity=".55" stroke-width="2.4"/><path d="M32 60c0-12 8-20 18-20s18 8 18 20" stroke="#4E8CFF" fill="none" stroke-width="3.2" stroke-linecap="round" stroke-linejoin="round"/><path d="M28 60h44M38 60v-8M50 60V44M62 60v-8" stroke="#4E8CFF" fill="none" stroke-width="3.2" stroke-linecap="round" stroke-linejoin="round"/><circle cx="50" cy="50" r="48.4" fill="none" stroke="#4E8CFF" stroke-opacity=".3" stroke-width="3.2"/></svg>