<svg xmlns="http://www.w3.org/2000/svg" viewBox="0 0 100 100" width="256" height="256" role="img" aria-label="Handicapper monitored by TrustMyRecord"><circle cx="50" cy="50" r="50" fill="#080D16"/><path d="M0 50a50 50 0 0 1 100 0Z" fill="#FFFFFF" opacity=".045"/><defs><clipPath id="e16oqqlc"><path d="M50 14 82 25v27c0 17-14 27-32 32C32 79 18 69 18 52V25z"/></clipPath></defs><path d="M50 14 82 25v27c0 17-14 27-32 32C32 79 18 69 18 52V25z" fill="#101927"/><g clip-path="url(#e16oqqlc)"></g><path d="M50 14 82 25v27c0 17-14 27-32 32C32 79 18 69 18 52V25z" fill="none" stroke="#4ADEC4" stroke-opacity=".55" stroke-width="2.4"/><path d="M31 38h38v24H31z" stroke="#4ADEC4" fill="none" stroke-width="3.2" stroke-linecap="round" stroke-linejoin="round"/><path d="M50 38v24" stroke="#4ADEC4" fill="none" stroke-width="2" stroke-linecap="round" stroke-linejoin="round"/><circle cx="50" cy="50" r="5" stroke="#4ADEC4" fill="none" stroke-width="2" stroke-linecap="round" stroke-linejoin="round"/><circle cx="50" cy="50" r="48.4" fill="none" stroke="#4ADEC4" stroke-opacity=".3" stroke-width="3.2"/></svg>